<svg xmlns="http://www.w3.org/2000/svg" width="81" height="81" viewBox="0 0 81 81"><g id="cardFee" transform="translate(-9.5 -9.5)"><path id="Tracé_400" fill="#e8f4fa" stroke="#daedf7" stroke-width="1" d="M10,50A40,40,0,1,0,50,10,40,40,0,0,0,10,50Z" data-name="Tracé 400"/><path id="Tracé_401" fill="#ebcb00" d="M22.621,39.151H63.413a5.508,5.508,0,0,1,5.508,5.508V66.878a5.508,5.508,0,0,1-5.508,5.508H22.62a5.507,5.507,0,0,1-5.507-5.507V44.659A5.508,5.508,0,0,1,22.621,39.151Z" data-name="Tracé 401"/><path id="Tracé_402" fill="#ffe500" d="M42.37,39.151H22.62a5.509,5.509,0,0,0-5.507,5.508V64.408Z" data-name="Tracé 402"/><path id="Tracé_403" fill="none" stroke="#45413c" stroke-linecap="round" stroke-linejoin="round" stroke-width="1" d="M23.956,64.566h9.775" data-name="Tracé 403"/><path id="Tracé_404" fill="#ffef9e" stroke="#45413c" stroke-linecap="round" stroke-linejoin="round" stroke-width="1" d="M23.956,50.881h9.775v6.842H23.956Z" data-name="Tracé 404"/><path id="Tracé_405" fill="none" stroke="#45413c" stroke-linecap="round" stroke-linejoin="round" stroke-width="1" d="M22.621,39.151H63.413a5.508,5.508,0,0,1,5.508,5.508V66.878a5.508,5.508,0,0,1-5.508,5.508H22.62a5.507,5.507,0,0,1-5.507-5.507V44.659A5.508,5.508,0,0,1,22.621,39.151Z" data-name="Tracé 405"/><path id="Tracé_406" fill="#ff6242" d="M45.461,61.634a5.865,5.865,0,1,0,5.865-5.865A5.865,5.865,0,0,0,45.461,61.634Z" data-name="Tracé 406"/><path id="Tracé_407" fill="#ffef9e" d="M52.3,61.634a5.865,5.865,0,1,0,5.865-5.865A5.865,5.865,0,0,0,52.3,61.634Z" data-name="Tracé 407"/><path id="Tracé_408" fill="#ffaa54" d="M54.747,56.869a5.868,5.868,0,0,0,0,9.529,5.866,5.866,0,0,0,0-9.529Z" data-name="Tracé 408"/><path id="Tracé_409" fill="none" stroke="#45413c" stroke-linecap="round" stroke-linejoin="round" stroke-width="1" d="M45.461,61.634a5.865,5.865,0,1,0,5.865-5.865A5.865,5.865,0,0,0,45.461,61.634Z" data-name="Tracé 409"/><path id="Tracé_410" fill="none" stroke="#45413c" stroke-linecap="round" stroke-linejoin="round" stroke-width="1" d="M52.3,61.634a5.865,5.865,0,1,0,5.865-5.865A5.865,5.865,0,0,0,52.3,61.634Z" data-name="Tracé 410"/><path id="Tracé_411" fill="#45413c" d="M55.722,81.308c0-.956-5.688-1.732-12.7-1.732s-12.706.776-12.706,1.732,5.684,1.733,12.7,1.733S55.722,82.265,55.722,81.308Z" data-name="Tracé 411" opacity=".15"/><path id="Tracé_412" fill="#f0f0f0" d="M48.385,30.319A20.213,20.213,0,1,0,68.6,10.106,20.213,20.213,0,0,0,48.385,30.319Z" data-name="Tracé 412"/><path id="Tracé_413" fill="#fff" d="M88.45,34.142a20.2,20.2,0,0,0-39.7,0,20.213,20.213,0,1,1,39.7,0Z" data-name="Tracé 413"/><path id="Tracé_414" fill="none" stroke="#45413c" stroke-linecap="round" stroke-linejoin="round" stroke-width="1" d="M48.385,30.319A20.213,20.213,0,1,0,68.6,10.106,20.213,20.213,0,0,0,48.385,30.319Z" data-name="Tracé 414"/><path id="Tracé_415" fill="#ffe500" d="M74.8,29.688l-5.7-11.4a.565.565,0,0,0-1.009,0l-5.7,11.4L55.17,23.426a.564.564,0,0,0-.923.534l3.074,15.878s0,2.82,11.277,2.82,11.278-2.82,11.278-2.82L82.949,23.96a.564.564,0,0,0-.923-.534Z" data-name="Tracé 415"/><path id="Tracé_416" fill="#ffe500" d="M74.8,29.688l-5.7-11.4a.565.565,0,0,0-1.009,0l-5.7,11.4L55.17,23.426a.564.564,0,0,0-.923.534l3.074,15.878s0,2.82,11.277,2.82,11.278-2.82,11.278-2.82L82.949,23.96a.564.564,0,0,0-.923-.534Z" data-name="Tracé 416"/><path id="Tracé_417" fill="#fff48c" d="M82.678,23.364a.566.566,0,0,0-.652.062L74.8,29.688l-5.7-11.4a.565.565,0,0,0-1.009,0l-5.7,11.4L55.17,23.426a.564.564,0,0,0-.923.533l3.074,15.879s0,2.82,11.277,2.82,11.278-2.82,11.278-2.82l3.073-15.879a.563.563,0,0,0-.271-.595Zm-4.51,15.99c-.342.3-2.212,1.534-9.57,1.534s-9.228-1.239-9.569-1.534L56.89,28.3a.442.442,0,0,1,.724-.418l4.914,4.259A.443.443,0,0,0,63.214,32L68.2,22.03a.443.443,0,0,1,.791,0l4.989,9.978a.442.442,0,0,0,.685.136l4.914-4.258a.442.442,0,0,1,.724.418Z" data-name="Tracé 417"/><path id="Tracé_418" fill="#ebcb00" d="M56.837,37.339l.484,2.5s0,2.82,11.277,2.82,11.278-2.82,11.278-2.82l.484-2.5c-1.083.827-3.984,1.935-11.762,1.935S57.919,38.166,56.837,37.339Z" data-name="Tracé 418"/><path id="Tracé_419" fill="#ffe500" d="M58.818,38.265a6.314,6.314,0,0,1-1.981-.926l.484,2.5s0,.983,2.322,1.789Z" data-name="Tracé 419"/><path id="Tracé_420" fill="#ffe500" d="M77.907,41.5c1.969-.777,1.969-1.658,1.969-1.658l.484-2.5a6.085,6.085,0,0,1-1.817.874Z" data-name="Tracé 420"/><path id="Tracé_421" fill="none" stroke="#45413c" stroke-linecap="round" stroke-linejoin="round" stroke-width="1" d="M56.837,37.339c1.082.827,3.984,1.935,11.761,1.935s10.679-1.108,11.762-1.935" data-name="Tracé 421"/><path id="Tracé_422" fill="none" stroke="#45413c" stroke-linecap="round" stroke-linejoin="round" stroke-width="1" d="M74.8,29.688l-5.7-11.4a.565.565,0,0,0-1.009,0l-5.7,11.4L55.17,23.426a.564.564,0,0,0-.923.534l3.074,15.878s0,2.82,11.277,2.82,11.278-2.82,11.278-2.82L82.949,23.96a.564.564,0,0,0-.923-.534Z" data-name="Tracé 422"/></g></svg>