<svg xmlns="http://www.w3.org/2000/svg" width="94.38" height="84.83" viewBox="0 0 94.38 84.83"><g id="cardServer" transform="translate(-2.81 -7.585)"><path id="Tracé_514" fill="#e8f4fa" stroke="#daedf7" stroke-width="1" d="M9.875,50a40,40,0,1,0,40-40,40,40,0,0,0-40,40Z" data-name="Tracé 514"/><path id="Tracé_515" fill="none" stroke="#45413c" stroke-linecap="round" stroke-linejoin="round" stroke-width="1" d="M55.408,13.82a37,37,0,0,0-11.092,0" data-name="Tracé 515"/><path id="Tracé_516" fill="none" stroke="#45413c" stroke-linecap="round" stroke-linejoin="round" stroke-width="1" d="M15.921,36.286a36.539,36.539,0,0,1,4.723-8.328" data-name="Tracé 516"/><path id="Tracé_517" fill="none" stroke="#45413c" stroke-linecap="round" stroke-linejoin="round" stroke-width="1" d="M55.408,86.18a37,37,0,0,1-11.092,0" data-name="Tracé 517"/><path id="Tracé_518" fill="none" stroke="#45413c" stroke-linecap="round" stroke-linejoin="round" stroke-width="1" d="M15.921,63.714a36.539,36.539,0,0,0,4.723,8.328" data-name="Tracé 518"/><path id="Tracé_519" fill="none" stroke="#45413c" stroke-linecap="round" stroke-linejoin="round" stroke-width="1" d="M83.8,36.286a36.581,36.581,0,0,0-4.724-8.328" data-name="Tracé 519"/><path id="Tracé_520" fill="none" stroke="#45413c" stroke-linecap="round" stroke-linejoin="round" stroke-width="1" d="M83.8,63.714a36.58,36.58,0,0,1-4.724,8.328" data-name="Tracé 520"/><path id="Tracé_521" fill="none" stroke="#45413c" stroke-linecap="round" stroke-linejoin="round" stroke-width="1" d="M25.786,50h6.976" data-name="Tracé 521"/><path id="Tracé_522" fill="none" stroke="#45413c" stroke-linecap="round" stroke-linejoin="round" stroke-width="1" d="M36.08,27.049l4.213,7.016" data-name="Tracé 522"/><path id="Tracé_523" fill="none" stroke="#45413c" stroke-linecap="round" stroke-linejoin="round" stroke-width="1" d="M36.08,72.951l4.213-7.016" data-name="Tracé 523"/><path id="Tracé_524" fill="none" stroke="#45413c" stroke-linecap="round" stroke-linejoin="round" stroke-width="1" d="M73.938,50H66.962" data-name="Tracé 524"/><path id="Tracé_525" fill="none" stroke="#45413c" stroke-linecap="round" stroke-linejoin="round" stroke-width="1" d="M63.644,27.049l-4.213,7.016" data-name="Tracé 525"/><path id="Tracé_526" fill="none" stroke="#45413c" stroke-linecap="round" stroke-linejoin="round" stroke-width="1" d="M63.644,72.951l-4.213-7.016" data-name="Tracé 526"/><path id="Tracé_527" fill="#4acfff" stroke="#45413c" stroke-linecap="round" stroke-linejoin="round" stroke-width="1" d="M23.155,56.747a1.373,1.373,0,0,1-1.369,1.369H4.678A1.373,1.373,0,0,1,3.31,56.747V45.114H23.155Z" data-name="Tracé 527"/><path id="Tracé_528" fill="#fff" stroke="#45413c" stroke-linecap="round" stroke-linejoin="round" stroke-width="1" d="M23.155,45.114H3.31V43.253a1.373,1.373,0,0,1,1.368-1.369H21.786a1.373,1.373,0,0,1,1.369,1.369Z" data-name="Tracé 528"/><path id="Tracé_529" fill="#4acfff" stroke="#45413c" stroke-linecap="round" stroke-linejoin="round" stroke-width="1" d="M40.885,22.948a1.373,1.373,0,0,1-1.369,1.369H22.408a1.373,1.373,0,0,1-1.368-1.369V11.315H40.885Z" data-name="Tracé 529"/><path id="Tracé_530" fill="#fff" stroke="#45413c" stroke-linecap="round" stroke-linejoin="round" stroke-width="1" d="M40.885,11.315H21.04V9.454a1.373,1.373,0,0,1,1.368-1.369H39.516a1.373,1.373,0,0,1,1.369,1.369Z" data-name="Tracé 530"/><path id="Tracé_531" fill="#4acfff" stroke="#45413c" stroke-linecap="round" stroke-linejoin="round" stroke-width="1" d="M39.782,90.546a1.373,1.373,0,0,1-1.368,1.369H21.306a1.373,1.373,0,0,1-1.369-1.369V78.913H39.782Z" data-name="Tracé 531"/><path id="Tracé_532" fill="#fff" stroke="#45413c" stroke-linecap="round" stroke-linejoin="round" stroke-width="1" d="M39.782,78.913H19.937V77.052a1.373,1.373,0,0,1,1.369-1.369H38.414a1.373,1.373,0,0,1,1.368,1.369Z" data-name="Tracé 532"/><path id="Tracé_533" fill="#4acfff" stroke="#45413c" stroke-linecap="round" stroke-linejoin="round" stroke-width="1" d="M76.845,56.747a1.373,1.373,0,0,0,1.369,1.369H95.322a1.373,1.373,0,0,0,1.368-1.369V45.114H76.845Z" data-name="Tracé 533"/><path id="Tracé_534" fill="#fff" stroke="#45413c" stroke-linecap="round" stroke-linejoin="round" stroke-width="1" d="M76.845,45.114H96.69V43.253a1.373,1.373,0,0,0-1.368-1.369H78.214a1.373,1.373,0,0,0-1.369,1.369Z" data-name="Tracé 534"/><path id="Tracé_535" fill="#4acfff" stroke="#45413c" stroke-linecap="round" stroke-linejoin="round" stroke-width="1" d="M58.84,22.948a1.372,1.372,0,0,0,1.368,1.369H77.316a1.373,1.373,0,0,0,1.369-1.369V11.315H58.84Z" data-name="Tracé 535"/><path id="Tracé_536" fill="#fff" stroke="#45413c" stroke-linecap="round" stroke-linejoin="round" stroke-width="1" d="M58.84,11.315H78.685V9.454a1.373,1.373,0,0,0-1.369-1.369H60.208A1.372,1.372,0,0,0,58.84,9.454Z" data-name="Tracé 536"/><path id="Tracé_537" fill="#4acfff" stroke="#45413c" stroke-linecap="round" stroke-linejoin="round" stroke-width="1" d="M59.942,90.546a1.373,1.373,0,0,0,1.369,1.369H78.418a1.373,1.373,0,0,0,1.369-1.369V78.913H59.942Z" data-name="Tracé 537"/><path id="Tracé_538" fill="#fff" stroke="#45413c" stroke-linecap="round" stroke-linejoin="round" stroke-width="1" d="M59.942,78.913H79.787V77.052a1.373,1.373,0,0,0-1.369-1.369H61.311a1.373,1.373,0,0,0-1.369,1.369Z" data-name="Tracé 538"/><path id="Tracé_539" fill="#656769" d="M34.978,36.77H64.745V63.23H34.978Z" data-name="Tracé 539"/><path id="Tracé_540" fill="#87898c" d="M64.746,39.526H34.978v-.551a2.2,2.2,0,0,1,2.2-2.2H62.541a2.2,2.2,0,0,1,2.2,2.2Z" data-name="Tracé 540"/><path id="Tracé_541" fill="none" stroke="#45413c" stroke-linecap="round" stroke-linejoin="round" stroke-width="1" d="M38.286,58.82H44.9" data-name="Tracé 541"/><path id="Tracé_542" fill="none" stroke="#45413c" stroke-linecap="round" stroke-linejoin="round" stroke-width="1" d="M38.286,50H44.9" data-name="Tracé 542"/><path id="Tracé_543" fill="none" stroke="#45413c" stroke-linecap="round" stroke-linejoin="round" stroke-width="1" d="M38.286,41.18H44.9" data-name="Tracé 543"/><path id="Tracé_544" fill="#4acfff" stroke="#45413c" stroke-linecap="round" stroke-linejoin="round" stroke-width="1" d="M59.233,41.18a1.654,1.654,0,1,0,1.654-1.654,1.654,1.654,0,0,0-1.654,1.654Z" data-name="Tracé 544"/><path id="Tracé_545" fill="#00f5bc" stroke="#45413c" stroke-linecap="round" stroke-linejoin="round" stroke-width="1" d="M53.721,41.18a1.654,1.654,0,1,0,1.654-1.654,1.654,1.654,0,0,0-1.654,1.654Z" data-name="Tracé 545"/><path id="Tracé_546" fill="#4acfff" stroke="#45413c" stroke-linecap="round" stroke-linejoin="round" stroke-width="1" d="M59.233,50a1.654,1.654,0,1,0,1.654-1.654A1.654,1.654,0,0,0,59.233,50Z" data-name="Tracé 546"/><path id="Tracé_547" fill="#00f5bc" stroke="#45413c" stroke-linecap="round" stroke-linejoin="round" stroke-width="1" d="M53.721,50a1.654,1.654,0,1,0,1.654-1.654A1.654,1.654,0,0,0,53.721,50Z" data-name="Tracé 547"/><path id="Tracé_548" fill="#4acfff" stroke="#45413c" stroke-linecap="round" stroke-linejoin="round" stroke-width="1" d="M59.233,58.82a1.654,1.654,0,1,0,1.654-1.654A1.654,1.654,0,0,0,59.233,58.82Z" data-name="Tracé 548"/><path id="Tracé_549" fill="#00f5bc" stroke="#45413c" stroke-linecap="round" stroke-linejoin="round" stroke-width="1" d="M53.721,58.82a1.654,1.654,0,1,0,1.654-1.654A1.654,1.654,0,0,0,53.721,58.82Z" data-name="Tracé 549"/><path id="Tracé_550" fill="none" stroke="#45413c" stroke-linecap="round" stroke-linejoin="round" stroke-width="1" d="M62.541,63.23H37.183a2.2,2.2,0,0,1-2.2-2.2V54.41H64.746v6.615a2.2,2.2,0,0,1-2.205,2.2Z" data-name="Tracé 550"/><path id="Tracé_551" fill="none" stroke="#45413c" stroke-linecap="round" stroke-linejoin="round" stroke-width="1" d="M34.978,45.59H64.745v8.82H34.978Z" data-name="Tracé 551"/><path id="Tracé_552" fill="none" stroke="#45413c" stroke-linecap="round" stroke-linejoin="round" stroke-width="1" d="M64.746,45.59H34.978V38.975a2.2,2.2,0,0,1,2.2-2.2H62.541a2.2,2.2,0,0,1,2.2,2.2Z" data-name="Tracé 552"/></g></svg>